<svg id="evS3lUG4hVd1" xmlns="http://www.w3.org/2000/svg" xmlns:xlink="http://www.w3.org/1999/xlink" viewBox="0 0 1920 1080" shape-rendering="geometricPrecision" text-rendering="geometricPrecision"><path d="M280.079081,411.021871l244.211047,1.334486-1.334488-184.15915l1.334488,301.593971l8.006917-118.769307l126.776226,1.334486l2.668974-118.769306l1.334486,270.900778l5.337947-153.465958l130.779686,1.334486v-229.531694v432.373657l8.006919-204.176449h152.798715v-85.407142v238.8731l10.00865-153.465958l161.472878,1.334486v-148.128012v306.931917l8.006919-160.138391h172.148771l1.334486-182.824664-2.668973,387.001113l10.675893-204.176449l180.15569,1.334486" transform="translate(.000002 0)" fill="none" stroke="#fff" stroke-width="3.84"/><path d="M280.079081,411.021871l244.211047,1.334486-1.334488-184.15915l1.334488,301.593971l8.006917-118.769307l126.776226,1.334486l2.668974-118.769306l1.334486,270.900778l5.337947-153.465958l130.779686,1.334486v-229.531694v432.373657l8.006919-204.176449h152.798715v-85.407142v238.8731l10.00865-153.465958l161.472878,1.334486v-148.128012v306.931917l8.006919-160.138391h172.148771l1.334486-182.824664-2.668973,387.001113l10.675893-204.176449l180.15569,1.334486" transform="translate(.000002 0)" fill="none" stroke="#fff" stroke-width="3.84"/></svg>
